<?xml version="1.0" standalone="no"?>
<!DOCTYPE svg PUBLIC "-//W3C//DTD SVG 1.1//EN" "http://www.w3.org/Graphics/SVG/1.1/DTD/svg11.dtd" >
<svg xmlns="http://www.w3.org/2000/svg">
<metadata>
This is a custom SVG webfont generated by Font Squirrel.
Copyright   : HTF Gotham Copr 2000 The Hoefler Type Foundry Inc Info wwwtypographycom
</metadata>
<defs>
<font id="webfonto4n7N2jS" horiz-adv-x="1617" >
<font-face units-per-em="2048" ascent="1638" descent="-410" />
<missing-glyph horiz-adv-x="614" />
<glyph unicode=" "  horiz-adv-x="614" />
<glyph unicode="&#x09;" horiz-adv-x="614" />
<glyph unicode="&#xa0;" horiz-adv-x="614" />
<glyph unicode="!" horiz-adv-x="555" d="M184 0v215h189v-215h-189zM186 1317v117h185v-117l-49 -911h-89z" />
<glyph unicode="&#x22;" horiz-adv-x="901" d="M133 877l62 557h190v-11l-166 -546h-86zM532 877l64 557h188v-11l-166 -546h-86z" />
<glyph unicode="#" horiz-adv-x="1433" d="M92 362v142h248l76 434h-244v141h266l62 355h143l-59 -355h389l61 355h144l-60 -355h221v-141h-245l-76 -434h242v-142h-265l-63 -362h-144l62 362h-389l-64 -362h-143l61 362h-223zM485 504h389l74 434h-389z" />
<glyph unicode="$" horiz-adv-x="1302" d="M115 215l92 123q193 -172 397 -195v512q-229 55 -332.5 147.5t-103.5 252.5q0 158 121 263t309 116v118h131v-122q205 -18 391 -164l-88 -123q-139 119 -309 147v-504q233 -53 337.5 -147t104.5 -252q0 -164 -120.5 -269.5t-315.5 -117.5v-201h-131v205q-264 25 -483 211 zM326 1065q0 -94 58 -151.5t220 -98.5v481q-127 -4 -202.5 -69.5t-75.5 -161.5zM723 137q129 6 207 71.5t78 168.5q0 96 -60.5 153.5t-224.5 96.5v-490z" />
<glyph unicode="%" horiz-adv-x="1708" d="M106 1081q0 152 92.5 260.5t235.5 108.5q141 0 231.5 -107.5t90.5 -257.5q0 -152 -91.5 -260t-234.5 -108q-141 0 -232.5 107t-91.5 257zM244 1085q0 -109 55 -181.5t135 -72.5q82 0 134.5 72t52.5 178q0 109 -55.5 181.5t-135.5 72.5q-84 0 -135 -72t-51 -178zM254 0 l1053 1434h145l-1051 -1434h-147zM952 348q0 152 91.5 260.5t234.5 108.5q141 0 231 -106.5t90 -258t-91 -260t-234 -108.5q-141 0 -231.5 107t-90.5 257zM1087 352q0 -109 55.5 -181.5t135.5 -72.5q84 0 135 72t51 178q0 109 -55 181.5t-135 72.5q-82 0 -134.5 -72 t-52.5 -178z" />
<glyph unicode="&#x26;" horiz-adv-x="1425" d="M92 383q0 281 346 416q-76 88 -109.5 160.5t-33.5 156.5q0 145 105.5 243.5t273.5 98.5q150 0 249 -94t99 -231q0 -256 -338 -375l328 -334q92 133 172 319l133 -61q-109 -231 -207 -360l250 -256l-123 -95l-225 232q-207 -223 -469 -223q-197 0 -324 111.5t-127 291.5z M256 389q0 -117 84 -194.5t215 -77.5q188 0 358 186l-383 395q-137 -51 -205.5 -132t-68.5 -177zM451 1116q0 -63 30.5 -120.5t112.5 -145.5q276 94 276 274q0 88 -57 144.5t-145 56.5q-96 0 -156.5 -59.5t-60.5 -149.5z" />
<glyph unicode="'" horiz-adv-x="501" d="M133 877l62 557h192v-11l-166 -546h-88z" />
<glyph unicode="(" horiz-adv-x="888" d="M139 588q0 557 568 876l67 -104q-475 -303 -475 -772t475 -772l-67 -105q-568 320 -568 877z" />
<glyph unicode=")" horiz-adv-x="888" d="M115 -184q475 303 475 772t-475 772l67 104q567 -319 567.5 -876t-567.5 -877z" />
<glyph unicode="*" horiz-adv-x="880" d="M141 1016l238 108l-238 111l56 94l211 -147l-21 256h107l-21 -256l211 147l55 -94l-237 -111l237 -108l-55 -96l-211 149l21 -256h-107l21 256l-211 -149z" />
<glyph unicode="+" horiz-adv-x="1310" d="M154 647v148h426v422h151v-422h426v-148h-426v-422h-151v422h-426z" />
<glyph unicode="," horiz-adv-x="501" d="M94 -178q150 53 137 178h-73v215h188v-184q0 -123 -54 -188.5t-173 -92.5z" />
<glyph unicode="-" horiz-adv-x="835" d="M133 532v166h569v-166h-569z" />
<glyph unicode="." horiz-adv-x="501" d="M158 0v215h188v-215h-188z" />
<glyph unicode="/" horiz-adv-x="1040" d="M-43 -262l950 1896h146l-951 -1896h-145z" />
<glyph unicode="0" horiz-adv-x="1464" d="M127 714.5q0 311.5 169 527.5t439.5 216t436 -214t165.5 -525t-168 -527.5t-438 -216.5t-437 214t-167 525.5zM295 719q0 -246 123 -421t317.5 -175t314 173t119.5 419t-121.5 421t-316 175t-315.5 -173t-121 -419z" />
<glyph unicode="1" horiz-adv-x="733" d="M57 1323l351 121h118v-1444h-159v1276l-271 -84z" />
<glyph unicode="2" horiz-adv-x="1226" d="M98 0v125l520 459q168 150 234 247t66 203q0 123 -84 199t-205 76q-117 0 -206 -59.5t-179 -186.5l-119 86q104 156 221 230.5t295 74.5q195 0 319.5 -114.5t124.5 -292.5q0 -150 -79.5 -266.5t-282.5 -293.5l-383 -340h760v-147h-1002z" />
<glyph unicode="3" horiz-adv-x="1255" d="M102 231l117 105q174 -213 420 -213q133 0 223 78t90 202q0 133 -109.5 206t-291.5 73h-92l-33 96l453 510h-701v146h916v-119l-451 -500q207 -16 340 -117.5t133 -287.5q0 -190 -138 -312.5t-341 -122.5q-338 0 -535 256z" />
<glyph unicode="4" horiz-adv-x="1374" d="M88 457l811 987h141v-969h224v-135h-224v-340h-155v340h-756zM283 475h602v739z" />
<glyph unicode="5" horiz-adv-x="1253" d="M109 203l106 116q203 -197 408 -196q154 0 250 90t96 229q0 135 -99.5 219t-257.5 84q-147 0 -301 -81l-108 71l41 699h825v-150h-684l-31 -459q145 63 283 64q215 0 355.5 -120t140.5 -320q0 -211 -143.5 -342.5t-368.5 -131.5q-285 1 -512 228z" />
<glyph unicode="6" horiz-adv-x="1325" d="M125 678q0 338 160.5 559t435.5 221q223 0 424 -164l-94 -125q-168 141 -338 142q-193 0 -307.5 -176.5t-112.5 -456.5q150 219 407 219q207 0 351.5 -123t144.5 -319q0 -207 -147.5 -343.5t-366.5 -136.5q-231 0 -377 146q-92 92 -136 219t-44 338zM322 442 q0 -139 102 -231t260 -92q156 0 251 94t95 236q0 135 -98 222t-252 87q-156 0 -257 -94.5t-101 -221.5z" />
<glyph unicode="7" horiz-adv-x="1220" d="M139 1286v148h973v-121l-651 -1313h-180l647 1286h-789z" />
<glyph unicode="8" horiz-adv-x="1290" d="M106 387q0 125 80 215t215 139q-246 113 -245 332q0 164 144 272.5t345 108.5t345.5 -108.5t144.5 -272.5q0 -219 -246 -332q135 -51 215 -140t80 -212q0 -182 -153.5 -295.5t-385 -113.5t-385.5 113.5t-154 293.5zM270 391q0 -115 101.5 -192.5t273.5 -77.5t273.5 77.5 t101.5 192.5q0 121 -107.5 198t-267.5 77t-267.5 -77t-107.5 -198zM317 1063q0 -117 94.5 -190.5t233.5 -73.5t233.5 73.5t94.5 190.5q0 106 -94.5 178t-233.5 72q-141 0 -234.5 -70.5t-93.5 -179.5z" />
<glyph unicode="9" horiz-adv-x="1325" d="M129 969q0 209 145.5 349t370.5 140q229 0 377 -147q178 -178 178 -557q0 -344 -166 -561.5t-430 -217.5q-229 0 -442 177l94 124q174 -154 352 -153q193 0 311.5 176t114.5 453q-143 -229 -405 -230q-221 0 -360.5 125t-139.5 322zM295 977q0 -139 98.5 -227t253.5 -88 q158 0 257.5 97t99.5 228q0 139 -102.5 233.5t-262.5 94.5q-156 0 -250 -98.5t-94 -239.5z" />
<glyph unicode=":" horiz-adv-x="522" d="M168 0v215h188v-215h-188zM168 844v215h188v-215h-188z" />
<glyph unicode=";" horiz-adv-x="522" d="M104 -178q150 53 138 178h-74v215h188v-184q0 -123 -54 -188.5t-173 -92.5zM168 844v215h188v-215h-188z" />
<glyph unicode="&#x3c;" horiz-adv-x="1310" d="M147 653v135l961 478v-158l-789 -385l789 -387v-160z" />
<glyph unicode="=" horiz-adv-x="1310" d="M184 406v151h942v-151h-942zM184 885v151h942v-151h-942z" />
<glyph unicode="&#x3e;" horiz-adv-x="1310" d="M203 176v158l788 385l-788 387v160l960 -478v-135z" />
<glyph unicode="?" horiz-adv-x="1099" d="M61 1214q197 238 482 238q205 0 331.5 -114.5t126.5 -293.5q0 -182 -117.5 -286.5t-308.5 -130.5l-20 -221h-104l-31 331l10 11q197 4 302.5 80.5t105.5 209.5q0 115 -82 192t-217 77q-207 0 -373 -193zM408 0v215h188v-215h-188z" />
<glyph unicode="@" horiz-adv-x="2007" d="M109 561q0 369 261 633t636 264q371 0 631.5 -242.5t260.5 -568.5q0 -244 -113.5 -373t-268.5 -129q-109 0 -182.5 46.5t-104.5 125.5q-145 -172 -338 -172q-154 0 -260.5 103.5t-106.5 269.5q0 211 146.5 360.5t326.5 149.5q203 0 299 -170l27 141l137 -18l-82 -465 q-14 -80 -14 -125q0 -78 46 -122t128 -44q119 0 203 108.5t84 313.5q0 291 -238.5 516.5t-580.5 225.5q-350 0 -587 -242t-237 -586q0 -346 237.5 -584.5t602.5 -238.5q272 0 510 139l33 -55q-252 -154 -543 -154q-389 0 -651 261t-262 632zM672 528q0 -119 69.5 -187.5 t180.5 -68.5q131 0 233 112t102 257q0 113 -70.5 186.5t-178.5 73.5q-133 0 -234.5 -108.5t-101.5 -264.5z" />
<glyph unicode="A" d="M80 0l653 1444h152l653 -1444h-174l-168 379h-780l-170 -379h-166zM479 524h654l-326 731z" />
<glyph unicode="B" horiz-adv-x="1478" d="M203 0v1434h610q213 0 340 -97.5t127 -261.5q0 -236 -227 -334q307 -92 307 -348q0 -184 -141.5 -288.5t-378.5 -104.5h-637zM362 145h482q164 0 258 69t94 189q0 119 -97.5 183.5t-283.5 64.5h-453v-506zM362 795h424q150 0 240 66.5t90 191.5q0 109 -83 172t-234 63 h-437v-493z" />
<glyph unicode="C" horiz-adv-x="1511" d="M139 715q0 311 206 527t519 216q182 0 311.5 -57.5t247.5 -169.5l-110 -119q-207 197 -451 197q-238 0 -396.5 -169t-158.5 -421t160 -423t395 -171q139 0 245.5 51t217.5 156l107 -105q-123 -125 -256.5 -188.5t-317.5 -63.5q-309 0 -514 213.5t-205 526.5z" />
<glyph unicode="D" horiz-adv-x="1601" d="M203 0v1434h497q334 0 548 -204t214 -511t-214 -513t-548 -206h-497zM365 150h335q266 0 430 160.5t164 404t-163.5 406.5t-430.5 163h-335v-1134z" />
<glyph unicode="E" horiz-adv-x="1372" d="M203 0v1434h1036v-148h-874v-489h782v-148h-782v-502h884v-147h-1046z" />
<glyph unicode="F" horiz-adv-x="1343" d="M203 0v1434h1030v-150h-868v-512h776v-147h-776v-625h-162z" />
<glyph unicode="G" horiz-adv-x="1605" d="M139 715q0 305 202 524t517 219q172 0 296 -47t239 -143l-105 -123q-188 164 -436 164q-236 0 -390.5 -172t-154.5 -418q0 -262 154.5 -430t412.5 -168q238 0 414 143v357h-436v145h592v-571q-246 -219 -575.5 -219.5t-529.5 211t-200 528.5z" />
<glyph unicode="H" horiz-adv-x="1556" d="M203 0v1434h162v-637h827v637h162v-1434h-162v645h-827v-645h-162z" />
<glyph unicode="I" horiz-adv-x="595" d="M217 0v1434h162v-1434h-162z" />
<glyph unicode="J" horiz-adv-x="1132" d="M63 233l117 101q70 -104 144.5 -154.5t183.5 -50.5q125 0 202.5 89t77.5 255v961h164v-959q0 -240 -122.5 -367.5t-323.5 -127.5q-287 -1 -443 253z" />
<glyph unicode="K" horiz-adv-x="1472" d="M203 0v1434h162v-856l823 856h209l-615 -627l641 -807h-202l-551 694l-305 -309v-385h-162z" />
<glyph unicode="L" horiz-adv-x="1267" d="M203 0v1434h162v-1284h806v-150h-968z" />
<glyph unicode="M" horiz-adv-x="1777" d="M203 0v1434h164l522 -783l522 783h164v-1434h-162v1161l-522 -768h-8l-523 766v-1159h-157z" />
<glyph unicode="N" d="M203 0v1434h151l903 -1149v1149h158v-1434h-129l-926 1176v-1176h-157z" />
<glyph unicode="O" horiz-adv-x="1740" d="M139 715q0 305 207 524t526.5 219t524.5 -217t205 -522t-207 -524.5t-526.5 -219.5t-524.5 217.5t-205 522.5zM307 719q0 -248 161 -421t404.5 -173t402.5 171t159 419t-161 421t-404.5 173t-402.5 -171t-159 -419z" />
<glyph unicode="P" horiz-adv-x="1368" d="M203 0v1434h536q244 0 390.5 -123t146.5 -334q0 -223 -161 -347t-402 -124h-348v-506h-162zM365 653h354q178 0 285.5 87t107.5 231q0 152 -103.5 232.5t-281.5 80.5h-362v-631z" />
<glyph unicode="Q" horiz-adv-x="1740" d="M139 715q0 305 207 524t526.5 219t524.5 -217t205 -522q0 -279 -172 -483l190 -158l-111 -121l-188 172q-197 -154 -453 -154q-319 0 -524 217.5t-205 522.5zM307 719q0 -248 161 -421t404 -173q188 0 330 108l-266 228l108 121l265 -240q125 162 125 373q0 248 -161 421 t-404.5 173t-402.5 -171t-159 -419z" />
<glyph unicode="R" horiz-adv-x="1480" d="M203 0v1434h616q236 0 377 -117t141 -311q0 -174 -106.5 -281t-282.5 -139l441 -586h-199l-416 557h-409v-557h-162zM365 702h440q164 0 266.5 80t102.5 217q0 133 -96.5 209t-270.5 76h-442v-582z" />
<glyph unicode="S" horiz-adv-x="1310" d="M109 209l100 119q115 -104 230.5 -153.5t260.5 -49.5q143 0 231.5 68.5t88.5 177.5q0 106 -78 167.5t-295 106.5q-254 55 -367.5 148.5t-113.5 267.5q0 172 133 282.5t338 110.5q285 0 504 -176l-94 -125q-190 156 -414 156q-137 0 -221 -66.5t-84 -167.5 q0 -109 80.5 -170t308.5 -110q244 -53 355.5 -148.5t111.5 -259.5q0 -184 -137.5 -295.5t-352.5 -111.5q-329 0 -585 229z" />
<glyph unicode="T" horiz-adv-x="1327" d="M100 1284v150h1127v-150h-482v-1284h-163v1284h-482z" />
<glyph unicode="U" horiz-adv-x="1554" d="M180 600v834h162v-824q0 -231 115.5 -357t322.5 -126q203 0 317.5 121t114.5 352v834h162v-822q0 -307 -161.5 -471t-436.5 -164q-272 0 -434 163t-162 460z" />
<glyph unicode="V" horiz-adv-x="1536" d="M80 1434h180l510 -1235l512 1235h174l-616 -1444h-144z" />
<glyph unicode="W" horiz-adv-x="2267" d="M92 1434h176l410 -1194l393 1198h133l393 -1198l410 1194h170l-512 -1444h-137l-393 1163l-396 -1163h-135z" />
<glyph unicode="X" horiz-adv-x="1484" d="M94 0l551 731l-530 703h190l440 -586l437 586h188l-530 -701l551 -733h-193l-459 616l-458 -616h-187z" />
<glyph unicode="Y" horiz-adv-x="1466" d="M55 1434h197l483 -717l488 717h188l-596 -865v-569h-164v567z" />
<glyph unicode="Z" horiz-adv-x="1419" d="M137 0v109l928 1179h-897v146h1118v-109l-930 -1180h930v-145h-1149z" />
<glyph unicode="[" horiz-adv-x="899" d="M193 -266v1700h585v-123h-436v-1454h436v-123h-585z" />
<glyph unicode="\" horiz-adv-x="1040" d="M-12 1634h145l950 -1896h-145z" />
<glyph unicode="]" horiz-adv-x="899" d="M121 -143h438v1454h-438v123h586v-1700h-586v123z" />
<glyph unicode="^" horiz-adv-x="1024" d="M133 1010l318 428h122l318 -428h-139l-242 315l-242 -315h-135z" />
<glyph unicode="_" horiz-adv-x="1228" d="M-4 -199h1237v-129h-1237v129z" />
<glyph unicode="`" horiz-adv-x="1024" d="M295 1440l164 76l194 -297h-127z" />
<glyph unicode="a" horiz-adv-x="1185" d="M96 309q0 166 123 255t330 89q166 0 325 -45v37q0 141 -81.5 215t-233 74t-321.5 -78l-48 129q193 88 385 88q217 0 334 -108.5t117 -317.5v-647h-152v160q-139 -182 -382 -183q-160 0 -278 88t-118 244zM256 315q0 -98 77 -155.5t189 -57.5q147 0 251 81t104 206v103 q-156 45 -312 45q-147 0 -228 -60t-81 -162z" />
<glyph unicode="b" horiz-adv-x="1359" d="M176 0v1495h158v-649q160 236 405 235q203 0 354.5 -150.5t151.5 -400t-151.5 -401.5t-354.5 -152q-250 0 -405 226v-203h-158zM328 530q0 -180 114.5 -295.5t268.5 -115.5q160 0 266 110.5t106 298.5q0 184 -108.5 298t-263.5 114q-154 0 -268.5 -116t-114.5 -294z" />
<glyph unicode="c" horiz-adv-x="1169" d="M111 526q0 229 156.5 392t385.5 163q246 0 424 -188l-104 -111q-152 160 -322 160q-160 0 -269.5 -120t-109.5 -292q0 -174 112 -293.5t278 -119.5q176 0 323 157l100 -94q-184 -205 -432 -205q-229 0 -385.5 162t-156.5 389z" />
<glyph unicode="d" horiz-adv-x="1359" d="M115 528.5q0 249.5 151.5 401t354.5 151.5q250 0 405 -225v639h158v-1495h-158v213q-160 -236 -405 -236q-203 0 -354.5 151t-151.5 400.5zM276 530q0 -184 109 -297.5t264 -113.5q154 0 268.5 115.5t114.5 295.5q0 178 -114.5 294t-268.5 116q-160 0 -266.5 -111 t-106.5 -299z" />
<glyph unicode="e" horiz-adv-x="1212" d="M111 528q0 231 145 392t362 161q227 0 360.5 -159.5t133.5 -401.5q0 -31 -2 -49h-840q16 -166 122 -262t251 -96q190 0 334 149l98 -88q-178 -199 -436 -199q-223 0 -375.5 154.5t-152.5 398.5zM270 588h682q-12 156 -100 258t-238 102q-137 0 -232.5 -102t-111.5 -258z " />
<glyph unicode="f" horiz-adv-x="751" d="M90 920v137h146v92q0 172 82.5 263t236.5 91q100 0 174 -26v-138q-94 27 -154 27q-184 0 -184 -225v-86h336v-135h-334v-920h-157v920h-146z" />
<glyph unicode="g" horiz-adv-x="1359" d="M115 579.5q0 223.5 149.5 362.5t347.5 139q254 0 414 -213v191h158v-875q0 -252 -144.5 -384t-394.5 -132q-268 0 -481 148l72 123q186 -135 407 -136q178 0 281.5 97.5t103.5 279.5v125q-168 -223 -416 -223q-201 0 -349 137t-148 360.5zM276 584q0 -160 108 -261.5 t259 -101.5q156 0 272.5 101.5t116.5 259.5q0 160 -115.5 260t-273.5 100q-156 0 -261.5 -98t-105.5 -260z" />
<glyph unicode="h" horiz-adv-x="1261" d="M176 0v1495h158v-621q125 207 362 207q188 0 297 -115.5t109 -308.5v-657h-158v618q0 150 -76.5 235t-216.5 85q-137 0 -227 -92t-90 -240v-606h-158z" />
<glyph unicode="i" horiz-adv-x="538" d="M180 1290v174h180v-174h-180zM190 0v1059h158v-1059h-158z" />
<glyph unicode="j" horiz-adv-x="538" d="M-8 -195q37 -6 78 -6q121 0 120 142v1118h158v-1120q0 -137 -67.5 -205t-190.5 -68q-55 0 -98 10v129zM180 1290v174h180v-174h-180z" />
<glyph unicode="k" horiz-adv-x="1165" d="M176 0v1495h158v-1032l571 596h197l-445 -455l459 -604h-188l-379 494l-215 -218v-276h-158z" />
<glyph unicode="l" horiz-adv-x="538" d="M190 0v1495h158v-1495h-158z" />
<glyph unicode="m" horiz-adv-x="1947" d="M176 0v1059h158v-178q133 201 342 200q238 0 340 -211q137 211 373 211q182 0 287.5 -114.5t105.5 -311.5v-655h-158v618q0 154 -72.5 237t-201.5 83q-125 0 -209 -88t-84 -240v-610h-156v623q0 147 -72.5 231t-199.5 84t-211 -94t-84 -240v-604h-158z" />
<glyph unicode="n" horiz-adv-x="1261" d="M176 0v1059h158v-185q125 207 362 207q188 0 297 -115.5t109 -308.5v-657h-158v618q0 150 -76.5 235t-216.5 85q-137 0 -227 -92t-90 -240v-606h-158z" />
<glyph unicode="o" horiz-adv-x="1323" d="M111 526.5q0 229.5 158.5 392t394 162.5t393 -160.5t157.5 -390t-159.5 -392.5t-395 -163t-392 161t-156.5 390.5zM272 530.5q0 -174.5 113 -294t279 -119.5q170 0 279.5 118.5t109.5 290.5q0 174 -114 295t-280 121q-170 0 -278.5 -118.5t-108.5 -293z" />
<glyph unicode="p" horiz-adv-x="1359" d="M176 -328v1387h158v-213q160 236 405 235q203 0 354.5 -150.5t151.5 -400t-151.5 -401.5t-354.5 -152q-250 0 -405 226v-531h-158zM328 530q0 -180 114.5 -295.5t268.5 -115.5q160 0 266 110.5t106 298.5q0 184 -108.5 298t-263.5 114q-154 0 -268.5 -116t-114.5 -294z " />
<glyph unicode="q" horiz-adv-x="1359" d="M115 528.5q0 249.5 151.5 401t354.5 151.5q250 0 405 -225v203h158v-1387h-158v541q-160 -236 -405 -236q-203 0 -354.5 151t-151.5 400.5zM276 530q0 -184 109 -297.5t264 -113.5q154 0 268.5 115.5t114.5 295.5q0 178 -114.5 294t-268.5 116q-160 0 -266.5 -111 t-106.5 -299z" />
<glyph unicode="r" horiz-adv-x="829" d="M176 0v1059h158v-277q61 137 174 219q105 76 238 77q10 0 20 -1v-170h-12q-182 0 -301 -127t-119 -358v-422h-158z" />
<glyph unicode="s" horiz-adv-x="1019" d="M88 135l80 113q180 -135 367 -135q96 0 157.5 46t61.5 122v4q0 72 -66.5 110.5t-198.5 75.5q-80 23 -127 41t-106 52t-88 85t-29 121v4q0 135 101.5 219t259.5 84q205 0 381 -116l-72 -119q-158 102 -313 102q-92 0 -148.5 -43t-56.5 -110v-5q0 -29 16.5 -53t37 -40.5 t64.5 -35t70 -26.5l84 -27q59 -18 99 -32.5t90.5 -40t80 -55.5t50 -75t20.5 -100v-4q0 -147 -106.5 -232t-270.5 -85q-115 0 -232.5 41.5t-205.5 113.5z" />
<glyph unicode="t" horiz-adv-x="827" d="M84 920v139h147v319h158v-319h336v-139h-336v-619q0 -176 178 -176q78 0 154 37v-135q-86 -45 -191 -45q-137 0 -218 72.5t-81 226.5v639h-147z" />
<glyph unicode="u" horiz-adv-x="1261" d="M160 401v658h157v-619q0 -150 77 -234.5t216 -84.5q137 0 227.5 92t90.5 240v606h155v-1059h-155v184q-129 -207 -363 -207q-188 0 -296.5 115.5t-108.5 308.5z" />
<glyph unicode="v" horiz-adv-x="1202" d="M72 1059h174l356 -879l359 879h169l-460 -1067h-140z" />
<glyph unicode="w" horiz-adv-x="1763" d="M86 1059h168l278 -850l285 854h131l287 -854l278 850h164l-372 -1067h-138l-284 835l-287 -835h-139z" />
<glyph unicode="x" horiz-adv-x="1175" d="M80 0l416 539l-400 520h180l314 -410l313 410h176l-401 -516l418 -543h-183l-327 432l-330 -432h-176z" />
<glyph unicode="y" horiz-adv-x="1210" d="M70 1059h174l385 -883l340 883h168l-445 -1094q-68 -162 -149.5 -230.5t-202.5 -68.5q-115 0 -225 53l53 125q76 -39 166 -39q72 0 121 44.5t96 154.5z" />
<glyph unicode="z" horiz-adv-x="1138" d="M115 0v100l702 826h-678v133h893v-101l-704 -825h704v-133h-917z" />
<glyph unicode="{" horiz-adv-x="989" d="M115 526v123h53q133 0 187.5 60.5t54.5 185.5q0 18 -1 79.5t-1 76.5q0 174 92 270t352 143l25 -104q-205 -53 -262.5 -117.5t-57.5 -212.5q0 -20 1 -75.5t1 -77.5q0 -123 -54 -189.5t-159 -99.5q109 -35 161 -100.5t52 -188.5q0 -23 -1 -78t-1 -76q0 -147 57.5 -211.5 t262.5 -117.5l-25 -105q-260 47 -352 143.5t-92 270.5q0 14 1 75.5t1 80.5q0 125 -54.5 185t-187.5 60h-53z" />
<glyph unicode="|" horiz-adv-x="620" d="M244 -262v1896h133v-1896h-133z" />
<glyph unicode="}" horiz-adv-x="989" d="M111 -184q207 53 264 117.5t57 211.5q0 20 -1 75.5t-1 78.5q0 123 54.5 189.5t158.5 99.5q-109 35 -161 100.5t-52 188.5q0 23 1 78t1 75q0 147 -57.5 212t-263.5 118l26 104q260 -47 352.5 -143t92.5 -270q0 -14 -1 -76t-1 -80q0 -125 54 -185.5t185 -60.5h53v-123h-53 q-131 0 -185 -60t-54 -185q0 -18 1 -80t1 -76q0 -174 -92.5 -270.5t-352.5 -143.5z" />
<glyph unicode="~" horiz-adv-x="968" d="M150 512q31 117 75.5 167t118.5 50q47 0 144.5 -42t129.5 -42q39 0 60.5 21.5t46.5 81.5l94 -27q-31 -117 -75 -167t-117 -50q-49 0 -145.5 42t-129.5 42q-39 0 -60.5 -21.5t-45.5 -81.5z" />
<glyph unicode="&#xa1;" horiz-adv-x="555" d="M184 1219v215h189v-215h-189zM186 0v117l47 911h89l49 -911v-117h-185z" />
<glyph unicode="&#xa2;" horiz-adv-x="1189" d="M119 725q0 227 157.5 391t385.5 164h26l31 166h133l-37 -184q145 -35 270 -172l-102 -107q-111 111 -203 137l-153 -801q33 -4 51 -4q172 2 315 158l99 -92q-182 -207 -428 -207q-39 0 -60 4l-37 -190h-133l45 217q-160 57 -260 200.5t-100 319.5zM279 729 q0 -127 64.5 -229.5t170.5 -151.5l152 791h-13q-160 -2 -267 -120t-107 -290z" />
<glyph unicode="&#xa3;" horiz-adv-x="1318" d="M137 0v94l172 43v467h-172v141h172v222q0 221 120 354t333 133q268 0 438 -221l-125 -98q-68 84 -139.5 127t-175.5 43q-137 0 -213 -90.5t-76 -247.5v-222h571v-141h-571v-461h727v-143h-1061z" />
<glyph unicode="&#xa4;" horiz-adv-x="1474" d="M115 485v129h166q-4 33 -5 101q0 70 9 121h-170v127h192q59 221 210 358t353 137q305 0 494 -280l-123 -88q-82 115 -167 169t-210 54q-133 0 -237.5 -96.5t-153.5 -253.5h526v-127h-553q-8 -49 -8 -117q0 -35 4 -105h557v-129h-530q45 -166 156.5 -265t261.5 -99 q115 0 199.5 59.5t164.5 175.5l117 -82q-94 -141 -210 -220t-277 -79q-215 0 -370 139.5t-210 370.5h-186z" />
<glyph unicode="&#xa5;" horiz-adv-x="1404" d="M55 1434h193l457 -701l460 701h185l-523 -762h373v-127h-420v-180h420v-127h-420v-238h-155v238h-420v127h420v180h-420v127h370z" />
<glyph unicode="&#xa7;" horiz-adv-x="1294" d="M127 735q0 92 72.5 153.5t197.5 82.5q-152 78 -151 209q0 125 102.5 199.5t274.5 74.5q279 0 469 -194l-103 -99q-162 158 -371 158q-102 0 -156 -38t-54 -99q0 -59 72.5 -102.5t260.5 -88.5q233 -55 329.5 -120.5t96.5 -172.5q0 -92 -72.5 -153.5t-197.5 -81.5 q152 -78 152 -209q0 -125 -102.5 -199.5t-274.5 -74.5q-279 0 -469 194l102 98q162 -158 371 -157q102 0 156.5 37.5t54.5 99.5q0 59 -73 102t-261 88q-233 55 -329.5 121t-96.5 172zM279 752q0 -55 64.5 -98.5t225.5 -82.5q133 -33 224 -32q98 0 160.5 42t62.5 101 q0 55 -64.5 98t-226.5 82q-137 33 -223 33q-98 0 -160.5 -42t-62.5 -101z" />
<glyph unicode="&#xa8;" horiz-adv-x="1024" d="M240 1219v194h184v-194h-184zM600 1219v194h184v-194h-184z" />
<glyph unicode="&#xa9;" horiz-adv-x="1699" d="M109 715q0 305 217 524t526 219t524 -217t215 -522t-217 -524.5t-526 -219.5t-524 217.5t-215 522.5zM176 714.5q0 -282.5 193.5 -479t478.5 -196.5q287 0 481.5 198.5t194.5 481t-193.5 479.5t-478.5 197q-287 0 -481.5 -199t-194.5 -481.5zM477 727q0 164 109.5 278.5 t275.5 114.5t295 -123l-76 -82q-106 102 -221 103q-117 0 -192.5 -84t-75.5 -205t79 -206t191 -85q117 0 225 103l74 -72q-131 -135 -303 -135q-162 0 -271.5 114.5t-109.5 278.5z" />
<glyph unicode="&#xaa;" horiz-adv-x="798" d="M119 592v96h532v-96h-532zM125 1022q0 92 68.5 142t183.5 50q82 0 164 -22v10q0 70 -42 108t-118 38t-176 -45l-31 86q117 51 217 51q121 0 185.5 -60.5t64.5 -177.5v-354h-100v78q-74 -90 -197 -90q-88 0 -153.5 49t-65.5 137zM231 1026q0 -49 38 -76.5t93 -27.5 q74 0 126.5 39.5t52.5 103.5v49q-76 23 -156 23q-72 0 -113 -31t-41 -80z" />
<glyph unicode="&#xab;" horiz-adv-x="1126" d="M98 522v17l332 436l121 -68l-277 -375l277 -378l-121 -70zM555 522v17l332 436l119 -68l-277 -375l277 -378l-119 -70z" />
<glyph unicode="&#xad;" horiz-adv-x="835" d="M133 532v166h569v-166h-569z" />
<glyph unicode="&#xae;" horiz-adv-x="1699" d="M109 715q0 305 217 524t526 219t524 -217t215 -522t-217 -524.5t-526 -219.5t-524 217.5t-215 522.5zM176 714.5q0 -282.5 193.5 -479t478.5 -196.5q287 0 481.5 198.5t194.5 481t-193.5 479.5t-478.5 197q-287 0 -481.5 -199t-194.5 -481.5zM559 358v760h340 q127 0 207 -62.5t80 -166.5q0 -90 -53.5 -147.5t-143.5 -77.5l236 -306h-140l-219 287h-194v-287h-113zM672 745h217q82 0 131 36t49 102q0 63 -46 98t-128 35h-223v-271z" />
<glyph unicode="&#xaf;" horiz-adv-x="1024" d="M188 1229v137h648v-137h-648z" />
<glyph unicode="&#xb0;" horiz-adv-x="937" d="M147 1132.5q0 124.5 97.5 219t224.5 94.5t224.5 -94.5t97.5 -219t-97.5 -219t-224.5 -94.5t-224.5 94.5t-97.5 219zM266 1133q0 -84 58.5 -145.5t144.5 -61.5t144.5 61.5t58.5 145.5t-58.5 145t-144.5 61t-144.5 -61t-58.5 -145z" />
<glyph unicode="&#xb1;" horiz-adv-x="1236" d="M88 233l119 103q170 -213 424 -213q143 0 233 73.5t90 194.5q0 123 -101 192.5t-282 69.5h-147v140h151q150 0 245 71.5t95 194.5q0 111 -85 181.5t-222 70.5q-217 0 -370 -205l-119 86q188 266 493 266q205 0 336 -108.5t131 -276.5q0 -242 -250 -338q289 -94 289 -344 q0 -178 -137 -297t-354 -119q-166 0 -305.5 69.5t-233.5 188.5z" />
<glyph unicode="&#xb2;" horiz-adv-x="1226" d="M98 0v125l520 459q168 150 234 247t66 203q0 123 -84 199t-205 76q-117 0 -206 -59.5t-179 -186.5l-119 86q104 156 221 230.5t295 74.5q195 0 319.5 -114.5t124.5 -292.5q0 -150 -79.5 -266.5t-282.5 -293.5l-383 -340h760v-147h-1002z" />
<glyph unicode="&#xb3;" horiz-adv-x="1255" d="M102 231l117 105q174 -213 420 -213q133 0 223 78t90 202q0 133 -109.5 206t-291.5 73h-92l-33 96l453 510h-701v146h916v-119l-451 -500q207 -16 340 -117.5t133 -287.5q0 -190 -138 -312.5t-341 -122.5q-338 0 -535 256z" />
<glyph unicode="&#xb4;" horiz-adv-x="1024" d="M371 1219l194 297l164 -76l-231 -221h-127z" />
<glyph unicode="&#xb5;" horiz-adv-x="1740" d="M139 715q0 305 207 524t526.5 219t524.5 -217t205 -522q0 -170 -70 -321.5t-195 -254.5l353 -338v-12h-238l-270 252q-143 -70 -314 -70q-319 0 -524 217.5t-205 522.5zM307 719q0 -248 161 -421t404.5 -173t402.5 171t159 419t-161 421t-404.5 173t-402.5 -171 t-159 -419z" />
<glyph unicode="&#xb6;" horiz-adv-x="1044" d="M98 987q0 207 148.5 327t392.5 120h217v-1434h-164v541h-22q-252 0 -412 117.5t-160 328.5z" />
<glyph unicode="&#xb7;" horiz-adv-x="501" d="M158 508v215h188v-215h-188z" />
<glyph unicode="&#xb8;" horiz-adv-x="1024" d="M307 -248l185 268h124l-155 -337z" />
<glyph unicode="&#xb9;" horiz-adv-x="733" d="M57 1323l351 121h118v-1444h-159v1276l-271 -84z" />
<glyph unicode="&#xba;" horiz-adv-x="798" d="M98 1137q0 127 87 217t216 90q127 0 213 -89t86 -214q0 -127 -87 -217t-216 -90q-127 0 -213 89t-86 214zM104 592v96h590v-96h-590zM209 1141q0 -86 55 -147.5t137 -61.5t135.5 59.5t53.5 145.5q0 88 -55.5 148.5t-137.5 60.5t-135 -59.5t-53 -145.5z" />
<glyph unicode="&#xbb;" horiz-adv-x="1126" d="M121 152l276 376l-276 377l119 70l331 -436v-17l-331 -438zM575 152l277 376l-277 377l121 70l332 -436v-17l-332 -438z" />
<glyph unicode="&#xbc;" horiz-adv-x="2985" d="M1700 457l811 987h141v-969h224v-135h-224v-340h-155v340h-756zM1895 475h602v739zM1550 1552h156l-957 -1753h-155zM57 1323l351 121h118v-1444h-159v1276l-271 -84z" />
<glyph unicode="&#xbd;" horiz-adv-x="2838" d="M1710 0v125l520 459q168 150 234 247t66 203q0 123 -84 199t-205 76q-117 0 -206 -59.5t-179 -186.5l-119 86q104 156 221 230.5t295 74.5q195 0 319.5 -114.5t124.5 -292.5q0 -150 -79.5 -266.5t-282.5 -293.5l-383 -340h760v-147h-1002zM1550 1552h156l-957 -1753h-155 zM57 1323l351 121h118v-1444h-159v1276l-271 -84z" />
<glyph unicode="&#xbe;" horiz-adv-x="3508" d="M2222 457l811 987h141v-969h224v-135h-224v-340h-155v340h-756zM2417 475h602v739zM2072 1552h156l-957 -1753h-155zM102 231l117 105q174 -213 420 -213q133 0 223 78t90 202q0 133 -109.5 206t-291.5 73h-92l-33 96l453 510h-701v146h916v-119l-451 -500 q207 -16 340 -117.5t133 -287.5q0 -190 -138 -312.5t-341 -122.5q-338 0 -535 256z" />
<glyph unicode="&#xbf;" horiz-adv-x="1099" d="M98 389q0 182 118 286.5t308 131.5l19 221h104l33 -332l-10 -10q-197 -4 -302.5 -81t-105.5 -210q0 -115 82 -191.5t217 -76.5q207 0 371 192l104 -100q-197 -238 -479 -237q-207 0 -333 114.5t-126 292.5zM504 1219v215h188v-215h-188z" />
<glyph unicode="&#xc0;" d="M80 0l653 1444h152l653 -1444h-174l-168 379h-780l-170 -379h-166zM479 524h654l-326 731zM512 1782l164 76l194 -297h-127z" />
<glyph unicode="&#xc1;" d="M80 0l653 1444h152l653 -1444h-174l-168 379h-780l-170 -379h-166zM479 524h654l-326 731zM748 1561l194 297l164 -76l-232 -221h-126z" />
<glyph unicode="&#xc2;" d="M80 0l653 1444h152l653 -1444h-174l-168 379h-780l-170 -379h-166zM479 524h654l-326 731zM522 1554l217 269h140l217 -269h-135l-154 138l-154 -138h-131z" />
<glyph unicode="&#xc3;" d="M80 0l653 1444h152l653 -1444h-174l-168 379h-780l-170 -379h-166zM473 1569q31 115 76 165t119 50q49 0 145 -41t129 -41q39 0 60.5 21.5t46.5 78.5l96 -26q-31 -115 -76 -165t-119 -50q-49 0 -145 40.5t-129 40.5q-39 0 -60.5 -21.5t-46.5 -78.5zM479 524h654l-326 731 z" />
<glyph unicode="&#xc4;" d="M80 0l653 1444h152l653 -1444h-174l-168 379h-780l-170 -379h-166zM479 524h654l-326 731zM537 1561v194h184v-194h-184zM897 1561v194h184v-194h-184z" />
<glyph unicode="&#xc5;" d="M80 0l629 1393q-113 59 -113 178q0 84 63.5 144.5t149.5 60.5t149.5 -60.5t63.5 -144.5q0 -119 -113 -178l629 -1393h-174l-168 379h-780l-170 -379h-166zM479 524h654l-326 731zM682 1571q0 -51 38 -89t89 -38t89 38t38 89t-38 89t-89 38t-89 -38t-38 -89z" />
<glyph unicode="&#xc6;" horiz-adv-x="2140" d="M35 0l842 1434h1130v-148h-838v-489h746v-148h-746v-502h848v-147h-1011v379h-578l-223 -379h-170zM510 524h496v766h-50z" />
<glyph unicode="&#xc7;" horiz-adv-x="1511" d="M139 715q0 311 206 527t519 216q182 0 311.5 -57.5t247.5 -169.5l-110 -119q-207 197 -451 197q-238 0 -396.5 -169t-158.5 -421t160 -423t395 -171q139 0 245.5 51t217.5 156l107 -105q-117 -119 -243 -181t-298 -71l-135 -292l-154 69l158 230q-272 35 -446.5 240.5 t-174.5 492.5z" />
<glyph unicode="&#xc8;" horiz-adv-x="1372" d="M203 0v1434h1036v-148h-874v-489h782v-148h-782v-502h884v-147h-1046zM465 1782l164 76l194 -297h-127z" />
<glyph unicode="&#xc9;" horiz-adv-x="1372" d="M203 0v1434h1036v-148h-874v-489h782v-148h-782v-502h884v-147h-1046zM608 1561l195 297l164 -76l-232 -221h-127z" />
<glyph unicode="&#xca;" horiz-adv-x="1372" d="M203 0v1434h1036v-148h-874v-489h782v-148h-782v-502h884v-147h-1046zM426 1561l217 268h139l217 -268h-135l-153 137l-154 -137h-131z" />
<glyph unicode="&#xcb;" horiz-adv-x="1372" d="M203 0v1434h1036v-148h-874v-489h782v-148h-782v-502h884v-147h-1046zM440 1561v194h185v-194h-185zM801 1561v194h184v-194h-184z" />
<glyph unicode="&#xcc;" horiz-adv-x="595" d="M4 1782l164 76l194 -297h-126zM217 0v1434h162v-1434h-162z" />
<glyph unicode="&#xcd;" horiz-adv-x="595" d="M217 0v1434h162v-1434h-162zM233 1561l195 297l164 -76l-232 -221h-127z" />
<glyph unicode="&#xce;" horiz-adv-x="595" d="M12 1561l217 268h140l217 -268h-135l-154 137l-154 -137h-131zM217 0v1434h162v-1434h-162z" />
<glyph unicode="&#xcf;" horiz-adv-x="595" d="M27 1561v194h184v-194h-184zM217 0v1434h162v-1434h-162zM387 1561v194h184v-194h-184z" />
<glyph unicode="&#xd0;" horiz-adv-x="1662" d="M111 647v148h153v639h498q334 0 548 -204t214 -511t-214 -513t-548 -206h-498v647h-153zM426 150h336q266 0 430 160.5t164 404t-164 406.5t-430 163h-336v-489h430v-148h-430v-497z" />
<glyph unicode="&#xd1;" d="M203 0v1434h151l903 -1149v1149h158v-1434h-129l-926 1176v-1176h-157zM473 1569q31 115 76 165t119 50q49 0 145 -41t129 -41q39 0 60.5 21.5t46.5 78.5l96 -26q-31 -115 -76 -165t-119 -50q-49 0 -145 40.5t-129 40.5q-39 0 -60.5 -21.5t-46.5 -78.5z" />
<glyph unicode="&#xd2;" horiz-adv-x="1740" d="M139 715q0 305 207 524t526.5 219t524.5 -217t205 -522t-207 -524.5t-526.5 -219.5t-524.5 217.5t-205 522.5zM307 719q0 -248 161 -421t404.5 -173t402.5 171t159 419t-161 421t-404.5 173t-402.5 -171t-159 -419zM565 1782l164 76l195 -297h-127z" />
<glyph unicode="&#xd3;" horiz-adv-x="1740" d="M139 715q0 305 207 524t526.5 219t524.5 -217t205 -522t-207 -524.5t-526.5 -219.5t-524.5 217.5t-205 522.5zM307 719q0 -248 161 -421t404.5 -173t402.5 171t159 419t-161 421t-404.5 173t-402.5 -171t-159 -419zM817 1561l195 297l164 -76l-232 -221h-127z" />
<glyph unicode="&#xd4;" horiz-adv-x="1740" d="M139 715q0 305 207 524t526.5 219t524.5 -217t205 -522t-207 -524.5t-526.5 -219.5t-524.5 217.5t-205 522.5zM307 719q0 -248 161 -421t404.5 -173t402.5 171t159 419t-161 421t-404.5 173t-402.5 -171t-159 -419zM584 1561l217 268h139l217 -268h-135l-154 137 l-153 -137h-131z" />
<glyph unicode="&#xd5;" horiz-adv-x="1740" d="M139 715q0 305 207 524t526.5 219t524.5 -217t205 -522t-207 -524.5t-526.5 -219.5t-524.5 217.5t-205 522.5zM307 719q0 -248 161 -421t404.5 -173t402.5 171t159 419t-161 421t-404.5 173t-402.5 -171t-159 -419zM535 1569q31 115 75.5 165t118.5 50q49 0 145.5 -41 t129.5 -41q39 0 60 21.5t46 78.5l96 -26q-31 -115 -76 -165t-118 -50q-49 0 -145.5 40.5t-129.5 40.5q-39 0 -60.5 -21.5t-45.5 -78.5z" />
<glyph unicode="&#xd6;" horiz-adv-x="1740" d="M139 715q0 305 207 524t526.5 219t524.5 -217t205 -522t-207 -524.5t-526.5 -219.5t-524.5 217.5t-205 522.5zM307 719q0 -248 161 -421t404.5 -173t402.5 171t159 419t-161 421t-404.5 173t-402.5 -171t-159 -419zM598 1561v194h184v-194h-184zM958 1561v194h185v-194 h-185z" />
<glyph unicode="&#xd8;" horiz-adv-x="1740" d="M123 -10l203 221q-186 209 -187 504q0 305 207 524t526 219q262 0 449 -151l127 137h170l-203 -223q186 -205 187 -502q0 -305 -207 -524.5t-527 -219.5q-262 0 -448 152l-127 -137h-170zM305 719q0 -221 129 -385l785 854q-156 125 -351 125q-244 0 -403.5 -172 t-159.5 -422zM522 246q156 -125 350 -125q244 0 404 172t160 422q0 221 -129 385z" />
<glyph unicode="&#xd9;" horiz-adv-x="1554" d="M180 600v834h162v-824q0 -231 115.5 -357t322.5 -126q203 0 317.5 121t114.5 352v834h162v-822q0 -307 -161.5 -471t-436.5 -164q-272 0 -434 163t-162 460zM494 1772l163 75l195 -297h-127z" />
<glyph unicode="&#xda;" horiz-adv-x="1554" d="M180 600v834h162v-824q0 -231 115.5 -357t322.5 -126q203 0 317.5 121t114.5 352v834h162v-822q0 -307 -161.5 -471t-436.5 -164q-272 0 -434 163t-162 460zM702 1550l195 297l164 -75l-232 -222h-127z" />
<glyph unicode="&#xdb;" horiz-adv-x="1554" d="M180 600v834h162v-824q0 -231 115.5 -357t322.5 -126q203 0 317.5 121t114.5 352v834h162v-822q0 -307 -161.5 -471t-436.5 -164q-272 0 -434 163t-162 460zM489 1554l218 269h139l217 -269h-135l-154 138l-153 -138h-132z" />
<glyph unicode="&#xdc;" horiz-adv-x="1554" d="M180 600v834h162v-824q0 -231 115.5 -357t322.5 -126q203 0 317.5 121t114.5 352v834h162v-822q0 -307 -161.5 -471t-436.5 -164q-272 0 -434 163t-162 460zM504 1554v195h184v-195h-184zM864 1554v195h185v-195h-185z" />
<glyph unicode="&#xdd;" horiz-adv-x="1466" d="M55 1434h197l483 -717l488 717h188l-596 -865v-569h-164v567zM674 1550l194 297l164 -75l-231 -222h-127z" />
<glyph unicode="&#xde;" horiz-adv-x="1378" d="M203 0v1434h162v-246h374q244 0 390.5 -123t146.5 -334q0 -223 -161 -348t-402 -125h-348v-258h-162zM365 406h354q178 0 285.5 88t107.5 231q0 152 -103.5 232.5t-281.5 80.5h-362v-632z" />
<glyph unicode="&#xdf;" horiz-adv-x="1269" d="M176 0v1026q0 217 126 350t339 133q190 0 306 -105.5t116 -264.5q0 -254 -285 -377q164 -37 268.5 -127t104.5 -240q0 -190 -148.5 -296.5t-404.5 -102.5v127q184 4 287.5 73.5t103.5 198.5q0 121 -103.5 192.5t-287.5 90.5v117q303 113 303 333q0 109 -74.5 175.5 t-193.5 66.5q-133 0 -216 -93t-83 -249v-1028h-158z" />
<glyph unicode="&#xe0;" horiz-adv-x="1185" d="M96 309q0 166 123 255t330 89q166 0 325 -45v37q0 141 -81.5 215t-233 74t-321.5 -78l-48 129q193 88 385 88q217 0 334 -108.5t117 -317.5v-647h-152v160q-139 -182 -382 -183q-160 0 -278 88t-118 244zM256 315q0 -98 77 -155.5t189 -57.5q147 0 251 81t104 206v103 q-156 45 -312 45q-147 0 -228 -60t-81 -162zM303 1440l164 76l195 -297h-127z" />
<glyph unicode="&#xe1;" horiz-adv-x="1185" d="M96 309q0 166 123 255t330 89q166 0 325 -45v37q0 141 -81.5 215t-233 74t-321.5 -78l-48 129q193 88 385 88q217 0 334 -108.5t117 -317.5v-647h-152v160q-139 -182 -382 -183q-160 0 -278 88t-118 244zM256 315q0 -98 77 -155.5t189 -57.5q147 0 251 81t104 206v103 q-156 45 -312 45q-147 0 -228 -60t-81 -162zM508 1219l194 297l164 -76l-231 -221h-127z" />
<glyph unicode="&#xe2;" horiz-adv-x="1185" d="M96 309q0 166 123 255t330 89q166 0 325 -45v37q0 141 -81.5 215t-233 74t-321.5 -78l-48 129q193 88 385 88q217 0 334 -108.5t117 -317.5v-647h-152v160q-139 -182 -382 -183q-160 0 -278 88t-118 244zM256 315q0 -98 77 -155.5t189 -57.5q147 0 251 81t104 206v103 q-156 45 -312 45q-147 0 -228 -60t-81 -162zM309 1219l217 268h140l217 -268h-135l-154 137l-154 -137h-131z" />
<glyph unicode="&#xe3;" horiz-adv-x="1185" d="M96 309q0 166 123 255t330 89q166 0 325 -45v37q0 141 -81.5 215t-233 74t-321.5 -78l-48 129q193 88 385 88q217 0 334 -108.5t117 -317.5v-647h-152v160q-139 -182 -382 -183q-160 0 -278 88t-118 244zM256 315q0 -98 77 -155.5t189 -57.5q147 0 251 81t104 206v103 q-156 45 -312 45q-147 0 -228 -60t-81 -162zM262 1227q31 115 76 165t119 50q49 0 145 -41t129 -41q39 0 60.5 21.5t46.5 78.5l96 -26q-31 -115 -76 -165t-119 -50q-49 0 -145 40.5t-129 40.5q-39 0 -60.5 -21.5t-46.5 -78.5z" />
<glyph unicode="&#xe4;" horiz-adv-x="1185" d="M96 309q0 166 123 255t330 89q166 0 325 -45v37q0 141 -81.5 215t-233 74t-321.5 -78l-48 129q193 88 385 88q217 0 334 -108.5t117 -317.5v-647h-152v160q-139 -182 -382 -183q-160 0 -278 88t-118 244zM256 315q0 -98 77 -155.5t189 -57.5q147 0 251 81t104 206v103 q-156 45 -312 45q-147 0 -228 -60t-81 -162zM324 1219v194h184v-194h-184zM684 1219v194h184v-194h-184z" />
<glyph unicode="&#xe5;" horiz-adv-x="1185" d="M96 309q0 166 123 255t330 89q166 0 325 -45v37q0 141 -81.5 215t-233 74t-321.5 -78l-48 129q193 88 385 88q217 0 334 -108.5t117 -317.5v-647h-152v160q-139 -182 -382 -183q-160 0 -278 88t-118 244zM256 315q0 -98 77 -155.5t189 -57.5q147 0 251 81t104 206v103 q-156 45 -312 45q-147 0 -228 -60t-81 -162zM383 1419q0 84 63.5 144.5t149.5 60.5t149.5 -60.5t63.5 -144.5t-63.5 -144.5t-149.5 -60.5t-149.5 60.5t-63.5 144.5zM469 1419q0 -51 38 -89t89 -38t89 38t38 89t-38 89t-89 38t-89 -38t-38 -89z" />
<glyph unicode="&#xe6;" horiz-adv-x="1951" d="M96 309q0 164 122 254t323 90q154 0 313 -45v37q0 141 -79 215t-226 74q-141 0 -311 -78l-48 129q193 88 375 88q309 0 389 -227q63 109 171 172t235 63q227 0 360 -159.5t133 -401.5q0 -12 -4 -49h-837q16 -166 121.5 -262t248.5 -96q190 0 334 149l99 -88 q-174 -199 -437 -199q-127 0 -237.5 56.5t-182.5 156.5q-203 -211 -462 -211q-166 0 -283 88t-117 244zM256 317q0 -98 73.5 -155.5t184.5 -57.5q213 0 381 189q-37 92 -43 201q-164 43 -295 43q-143 0 -222 -59t-79 -161zM1010 588h682q-12 156 -99.5 258t-236.5 102 q-139 0 -234.5 -101t-111.5 -259z" />
<glyph unicode="&#xe7;" horiz-adv-x="1169" d="M111 526q0 229 156.5 392t385.5 163q246 0 424 -188l-104 -111q-152 160 -322 160q-160 0 -269.5 -120t-109.5 -292q0 -174 112 -293.5t278 -119.5q176 0 323 157l100 -94q-174 -193 -401 -205l-135 -292l-154 69l160 234q-193 33 -318.5 186t-125.5 354z" />
<glyph unicode="&#xe8;" horiz-adv-x="1212" d="M111 528q0 231 145 392t362 161q227 0 360.5 -159.5t133.5 -401.5q0 -31 -2 -49h-840q16 -166 122 -262t251 -96q190 0 334 149l98 -88q-178 -199 -436 -199q-223 0 -375.5 154.5t-152.5 398.5zM270 588h682q-12 156 -100 258t-238 102q-137 0 -232.5 -102t-111.5 -258z M334 1440l164 76l194 -297h-127z" />
<glyph unicode="&#xe9;" horiz-adv-x="1212" d="M111 528q0 231 145 392t362 161q227 0 360.5 -159.5t133.5 -401.5q0 -31 -2 -49h-840q16 -166 122 -262t251 -96q190 0 334 149l98 -88q-178 -199 -436 -199q-223 0 -375.5 154.5t-152.5 398.5zM270 588h682q-12 156 -100 258t-238 102q-137 0 -232.5 -102t-111.5 -258z M520 1219l195 297l164 -76l-232 -221h-127z" />
<glyph unicode="&#xea;" horiz-adv-x="1212" d="M111 528q0 231 145 392t362 161q227 0 360.5 -159.5t133.5 -401.5q0 -31 -2 -49h-840q16 -166 122 -262t251 -96q190 0 334 149l98 -88q-178 -199 -436 -199q-223 0 -375.5 154.5t-152.5 398.5zM270 588h682q-12 156 -100 258t-238 102q-137 0 -232.5 -102t-111.5 -258z M326 1219l217 268h139l217 -268h-135l-154 137l-153 -137h-131z" />
<glyph unicode="&#xeb;" horiz-adv-x="1212" d="M111 528q0 231 145 392t362 161q227 0 360.5 -159.5t133.5 -401.5q0 -31 -2 -49h-840q16 -166 122 -262t251 -96q190 0 334 149l98 -88q-178 -199 -436 -199q-223 0 -375.5 154.5t-152.5 398.5zM270 588h682q-12 156 -100 258t-238 102q-137 0 -232.5 -102t-111.5 -258z M340 1219v194h184v-194h-184zM700 1219v194h185v-194h-185z" />
<glyph unicode="&#xec;" horiz-adv-x="538" d="M-23 1440l164 76l195 -297h-127zM190 0v1059h158v-1059h-158z" />
<glyph unicode="&#xed;" horiz-adv-x="538" d="M190 0v1059h158v-1059h-158zM205 1219l194 297l164 -76l-231 -221h-127z" />
<glyph unicode="&#xee;" horiz-adv-x="538" d="M-18 1219l217 268h139l217 -268h-135l-154 137l-153 -137h-131zM190 0v1059h158v-1059h-158z" />
<glyph unicode="&#xef;" horiz-adv-x="538" d="M-4 1219v194h184v-194h-184zM190 0v1059h158v-1059h-158zM356 1219v194h185v-194h-185z" />
<glyph unicode="&#xf0;" horiz-adv-x="1296" d="M111 504q0 215 142 353t343 138q172 0 332 -112l-269 377l-262 -130l-73 97l268 125l-103 143h189l53 -80l203 98l72 -96l-209 -96l207 -305q92 -135 136 -250t44 -250q0 -223 -150.5 -382t-394.5 -159q-225 0 -376.5 155t-151.5 374zM270 498q0 -154 108.5 -268.5 t270.5 -114.5q164 0 268.5 112.5t104.5 272.5q0 154 -111.5 262t-277.5 108q-164 0 -263.5 -106t-99.5 -266z" />
<glyph unicode="&#xf1;" horiz-adv-x="1261" d="M176 0v1059h158v-185q125 207 362 207q188 0 297 -115.5t109 -308.5v-657h-158v618q0 150 -76.5 235t-216.5 85q-137 0 -227 -92t-90 -240v-606h-158zM303 1227q31 115 76 165t119 50q49 0 145 -41t129 -41q39 0 60.5 21.5t46.5 78.5l96 -26q-31 -115 -76 -165t-119 -50 q-49 0 -145 40.5t-129 40.5q-39 0 -60.5 -21.5t-46.5 -78.5z" />
<glyph unicode="&#xf2;" horiz-adv-x="1323" d="M111 526.5q0 229.5 158.5 392t394 162.5t393 -160.5t157.5 -390t-159.5 -392.5t-395 -163t-392 161t-156.5 390.5zM272 530.5q0 -174.5 113 -294t279 -119.5q170 0 279.5 118.5t109.5 290.5q0 174 -114 295t-280 121q-170 0 -278.5 -118.5t-108.5 -293zM367 1440l163 76 l195 -297h-127z" />
<glyph unicode="&#xf3;" horiz-adv-x="1323" d="M111 526.5q0 229.5 158.5 392t394 162.5t393 -160.5t157.5 -390t-159.5 -392.5t-395 -163t-392 161t-156.5 390.5zM272 530.5q0 -174.5 113 -294t279 -119.5q170 0 279.5 118.5t109.5 290.5q0 174 -114 295t-280 121q-170 0 -278.5 -118.5t-108.5 -293zM600 1219l195 297 l163 -76l-231 -221h-127z" />
<glyph unicode="&#xf4;" horiz-adv-x="1323" d="M111 526.5q0 229.5 158.5 392t394 162.5t393 -160.5t157.5 -390t-159.5 -392.5t-395 -163t-392 161t-156.5 390.5zM272 530.5q0 -174.5 113 -294t279 -119.5q170 0 279.5 118.5t109.5 290.5q0 174 -114 295t-280 121q-170 0 -278.5 -118.5t-108.5 -293zM375 1219l217 268 h139l217 -268h-135l-154 137l-153 -137h-131z" />
<glyph unicode="&#xf5;" horiz-adv-x="1323" d="M111 526.5q0 229.5 158.5 392t394 162.5t393 -160.5t157.5 -390t-159.5 -392.5t-395 -163t-392 161t-156.5 390.5zM272 530.5q0 -174.5 113 -294t279 -119.5q170 0 279.5 118.5t109.5 290.5q0 174 -114 295t-280 121q-170 0 -278.5 -118.5t-108.5 -293zM326 1227 q31 115 75.5 165t118.5 50q49 0 145.5 -41t129.5 -41q39 0 60.5 21.5t45.5 78.5l96 -26q-31 -115 -75.5 -165t-118.5 -50q-49 0 -145.5 40.5t-129.5 40.5q-39 0 -60.5 -21.5t-45.5 -78.5z" />
<glyph unicode="&#xf6;" horiz-adv-x="1323" d="M111 526.5q0 229.5 158.5 392t394 162.5t393 -160.5t157.5 -390t-159.5 -392.5t-395 -163t-392 161t-156.5 390.5zM272 530.5q0 -174.5 113 -294t279 -119.5q170 0 279.5 118.5t109.5 290.5q0 174 -114 295t-280 121q-170 0 -278.5 -118.5t-108.5 -293zM389 1219v194h184 v-194h-184zM750 1219v194h184v-194h-184z" />
<glyph unicode="&#xf8;" horiz-adv-x="1323" d="M80 -10l162 174q-131 158 -131 362q0 229 158.5 392t394.5 163q190 0 329 -110l92 100h160l-164 -176q133 -154 133 -365q0 -229 -159.5 -392t-395.5 -163q-184 0 -329 109l-92 -94h-158zM268 530q0 -143 80 -251l549 579q-98 86 -238 86q-170 0 -280.5 -119t-110.5 -295 zM426 197q102 -84 238 -84q172 0 281.5 118.5t109.5 294.5q0 145 -80 254z" />
<glyph unicode="&#xf9;" horiz-adv-x="1261" d="M160 401v658h157v-619q0 -150 77 -234.5t216 -84.5q137 0 227.5 92t90.5 240v606h155v-1059h-155v184q-129 -207 -363 -207q-188 0 -296.5 115.5t-108.5 308.5zM350 1432l164 75l195 -297h-127z" />
<glyph unicode="&#xfa;" horiz-adv-x="1261" d="M160 401v658h157v-619q0 -150 77 -234.5t216 -84.5q137 0 227.5 92t90.5 240v606h155v-1059h-155v184q-129 -207 -363 -207q-188 0 -296.5 115.5t-108.5 308.5zM545 1210l194 297l164 -75l-231 -222h-127z" />
<glyph unicode="&#xfb;" horiz-adv-x="1261" d="M160 401v658h157v-619q0 -150 77 -234.5t216 -84.5q137 0 227.5 92t90.5 240v606h155v-1059h-155v184q-129 -207 -363 -207q-188 0 -296.5 115.5t-108.5 308.5zM346 1219l217 268h139l218 -268h-136l-153 137l-154 -137h-131z" />
<glyph unicode="&#xfc;" horiz-adv-x="1261" d="M160 401v658h157v-619q0 -150 77 -234.5t216 -84.5q137 0 227.5 92t90.5 240v606h155v-1059h-155v184q-129 -207 -363 -207q-188 0 -296.5 115.5t-108.5 308.5zM360 1219v194h185v-194h-185zM721 1219v194h184v-194h-184z" />
<glyph unicode="&#xfd;" horiz-adv-x="1210" d="M70 1059h174l385 -883l340 883h168l-445 -1094q-68 -162 -149.5 -230.5t-202.5 -68.5q-115 0 -225 53l53 125q76 -39 166 -39q72 0 121 44.5t96 154.5zM547 1210l194 297l164 -75l-231 -222h-127z" />
<glyph unicode="&#xfe;" horiz-adv-x="1359" d="M176 -328v1823h158v-649q160 236 405 235q203 0 354.5 -150.5t151.5 -400t-151.5 -401.5t-354.5 -152q-250 0 -405 226v-531h-158zM328 530q0 -180 114.5 -295.5t268.5 -115.5q160 0 266 110.5t106 298.5q0 184 -108.5 298t-263.5 114q-154 0 -268.5 -116t-114.5 -294z " />
<glyph unicode="&#xff;" horiz-adv-x="1210" d="M70 1059h174l385 -883l340 883h168l-445 -1094q-68 -162 -149.5 -230.5t-202.5 -68.5q-115 0 -225 53l53 125q76 -39 166 -39q72 0 121 44.5t96 154.5zM334 1219v194h184v-194h-184zM694 1219v194h185v-194h-185z" />
<glyph unicode="&#x152;" horiz-adv-x="2316" d="M139 715q0 307 214 513t548 206h1282v-148h-837v-489h745v-148h-745v-502h847v-147h-1292q-334 0 -548 204t-214 511zM307 719q0 -244 164 -406.5t430 -162.5h283v1134h-283q-266 0 -430 -160.5t-164 -404.5z" />
<glyph unicode="&#x153;" horiz-adv-x="2148" d="M111 526.5q0 227.5 158.5 391t389.5 163.5q154 0 277 -77.5t188 -206.5q61 131 175 207.5t260 76.5q225 0 357 -159.5t132 -401.5q0 -31 -2 -49h-838q16 -166 121 -262t250 -96q190 0 334 149l98 -88q-174 -199 -434 -199q-147 0 -269 77t-186 210q-66 -129 -190.5 -208 t-278.5 -79q-229 0 -385.5 162t-156.5 389.5zM272 530q0 -172 112 -292.5t278 -120.5q168 0 276.5 117.5t108.5 291.5t-112 295t-278 121q-168 0 -276.5 -119t-108.5 -293zM1206 588h682q-12 156 -99 258t-237 102q-139 0 -234.5 -101t-111.5 -259z" />
<glyph unicode="&#x178;" horiz-adv-x="1466" d="M55 1434h197l483 -717l488 717h188l-596 -865v-569h-164v567zM461 1554v195h184v-195h-184zM821 1554v195h185v-195h-185z" />
<glyph unicode="&#x2c6;" horiz-adv-x="1024" d="M225 1219l217 268h140l217 -268h-135l-154 137l-154 -137h-131z" />
<glyph unicode="&#x2dc;" horiz-adv-x="1024" d="M176 1227q31 115 76 165t119 50q49 0 145 -41t129 -41q39 0 60.5 21.5t46.5 78.5l96 -26q-31 -115 -76 -165t-119 -50q-49 0 -145 40.5t-129 40.5q-39 0 -60.5 -21.5t-46.5 -78.5z" />
<glyph unicode="&#x2000;" horiz-adv-x="927" />
<glyph unicode="&#x2001;" horiz-adv-x="1857" />
<glyph unicode="&#x2002;" horiz-adv-x="927" />
<glyph unicode="&#x2003;" horiz-adv-x="1857" />
<glyph unicode="&#x2004;" horiz-adv-x="618" />
<glyph unicode="&#x2005;" horiz-adv-x="462" />
<glyph unicode="&#x2006;" horiz-adv-x="309" />
<glyph unicode="&#x2007;" horiz-adv-x="309" />
<glyph unicode="&#x2008;" horiz-adv-x="231" />
<glyph unicode="&#x2009;" horiz-adv-x="370" />
<glyph unicode="&#x200a;" horiz-adv-x="102" />
<glyph unicode="&#x2010;" horiz-adv-x="835" d="M133 532v166h569v-166h-569z" />
<glyph unicode="&#x2011;" horiz-adv-x="835" d="M133 532v166h569v-166h-569z" />
<glyph unicode="&#x2012;" horiz-adv-x="835" d="M133 532v166h569v-166h-569z" />
<glyph unicode="&#x2013;" horiz-adv-x="1081" d="M133 537v157h815v-157h-815z" />
<glyph unicode="&#x2014;" horiz-adv-x="1839" d="M133 537v157h1573v-157h-1573z" />
<glyph unicode="&#x2018;" horiz-adv-x="501" d="M147 979v184q0 123 53.5 188.5t172.5 92.5l24 -72q-76 -27 -108.5 -69.5t-28.5 -108.5h76v-215h-189z" />
<glyph unicode="&#x2019;" horiz-adv-x="501" d="M104 1040q150 53 138 179h-74v215h188v-185q0 -123 -54 -188.5t-173 -91.5z" />
<glyph unicode="&#x201a;" horiz-adv-x="501" d="M94 -178q150 53 137 178h-73v215h188v-184q0 -123 -54 -188.5t-173 -92.5z" />
<glyph unicode="&#x201c;" horiz-adv-x="911" d="M147 979v184q0 123 53.5 188.5t172.5 92.5l24 -72q-76 -27 -108.5 -69.5t-28.5 -108.5h76v-215h-189zM557 979v184q0 123 53.5 188.5t171.5 92.5l25 -72q-76 -27 -108.5 -69.5t-28.5 -108.5h73v-215h-186z" />
<glyph unicode="&#x201d;" horiz-adv-x="911" d="M104 1040q150 53 138 179h-74v215h188v-185q0 -123 -54 -188.5t-173 -91.5zM514 1040q150 53 137 179h-73v215h186v-185q0 -123 -53.5 -188.5t-171.5 -91.5z" />
<glyph unicode="&#x201e;" horiz-adv-x="911" d="M94 -178q150 53 137 178h-73v215h188v-184q0 -123 -54 -188.5t-173 -92.5zM504 -178q150 53 137 178h-74v215h187v-184q0 -123 -53.5 -188.5t-172.5 -92.5z" />
<glyph unicode="&#x2022;" horiz-adv-x="978" d="M221 720.5q0 110.5 79 189.5t189.5 79t189.5 -79t79 -189.5t-79 -189t-189.5 -78.5t-189.5 78.5t-79 189z" />
<glyph unicode="&#x2026;" horiz-adv-x="1480" d="M158 0v211h182v-211h-182zM649 0v211h182v-211h-182zM1141 0v211h184v-211h-184z" />
<glyph unicode="&#x202f;" horiz-adv-x="370" />
<glyph unicode="&#x2039;" horiz-adv-x="671" d="M98 522v17l332 436l121 -68l-277 -375l277 -378l-121 -70z" />
<glyph unicode="&#x203a;" horiz-adv-x="671" d="M121 152l276 376l-276 377l119 70l331 -436v-17l-331 -438z" />
<glyph unicode="&#x2044;" horiz-adv-x="878" d="M817 1552h156l-957 -1753h-155z" />
<glyph unicode="&#x205f;" horiz-adv-x="462" />
<glyph unicode="&#x2122;" horiz-adv-x="1413" d="M53 1348v86h496v-86h-203v-545h-90v545h-203zM688 803v631h96l226 -347l223 347h94v-631h-88v483l-225 -342h-13l-223 342v-483h-90z" />
<glyph unicode="&#xfb01;" horiz-adv-x="1292" d="M90 920v137h146v92q0 172 82.5 263t236.5 91q100 0 174 -26v-138q-94 27 -154 27q-184 0 -184 -225v-86h336v-135h-334v-920h-157v920h-146zM932 1290v174h180v-174h-180zM944 0v1059h156v-1059h-156z" />
<glyph unicode="&#xfb02;" horiz-adv-x="1292" d="M90 920v137h146v92q0 172 82.5 263t236.5 91q100 0 174 -26v-138q-94 27 -154 27q-184 0 -184 -225v-86h336v-135h-334v-920h-157v920h-146zM944 0v1495h156v-1495h-156z" />
<glyph unicode="&#xfb03;" horiz-adv-x="2041" d="M1683 1290v174h180v-174h-180zM1693 0v1059h158v-1059h-158zM842 920v137h146v92q0 172 82.5 263t236.5 91q100 0 174 -26v-138q-94 27 -154 27q-184 0 -184 -225v-86h336v-135h-334v-920h-157v920h-146zM90 920v137h146v92q0 172 82.5 263t236.5 91q100 0 174 -26v-138 q-94 27 -154 27q-184 0 -184 -225v-86h336v-135h-334v-920h-157v920h-146z" />
<glyph unicode="&#xfb04;" horiz-adv-x="2041" d="M1693 0v1495h158v-1495h-158zM842 920v137h146v92q0 172 82.5 263t236.5 91q100 0 174 -26v-138q-94 27 -154 27q-184 0 -184 -225v-86h336v-135h-334v-920h-157v920h-146zM90 920v137h146v92q0 172 82.5 263t236.5 91q100 0 174 -26v-138q-94 27 -154 27 q-184 0 -184 -225v-86h336v-135h-334v-920h-157v920h-146z" />
</font>
</defs>
</svg>
